<svg width="72" height="60" viewBox="0 0 72 60" fill="none" xmlns="http://www.w3.org/2000/svg">
<path fill-rule="evenodd" clip-rule="evenodd" d="M0 0H12.552C18.0595 0 20.6209 -2.24836e-07 28.0492 2.06477C35.542 4.13 35.1579 5.42102 35.1579 5.42102C35.1579 5.42102 39.8965 3.03326 42.7785 2.25903C45.6599 1.54893 49.6939 0 57.5709 0H70.1875V17.3588H57.5709V11.5507C57.5709 11.5507 52.6404 11.0349 48.3495 12.1316C43.9955 13.2284 44.7634 13.5509 44.7634 13.5509C44.7634 13.5509 50.6555 20.1332 50.7196 29.7489C50.8473 39.4281 45.0844 45.1717 45.0844 45.1717C45.0844 45.1717 47.5812 46.7206 51.6802 46.8498C55.7142 46.9144 57.5714 46.8498 57.5714 46.8498V39.4281H70.188V59.1757H57.5714C53.9211 59.1757 46.1732 58.5302 42.523 57.11C38.8727 55.6907 35.1583 53.4963 35.1583 53.4963C35.1583 53.4963 31.444 55.6907 26.1283 57.4334C20.8132 59.1757 12.552 59.1757 12.552 59.1757H0V39.4281H12.552V47.4312C12.552 47.4312 14.857 47.8178 18.3154 47.4948C21.7734 47.1723 25.4232 45.8176 25.4232 45.8176C25.4232 45.8176 19.2756 39.9449 19.4038 29.3617C19.4679 18.714 24.8472 14.0035 24.8472 14.0035C24.8472 14.0035 23.3746 12.6484 19.2761 12.1321C15.2417 11.6158 12.552 11.9383 12.552 11.9383V32.395L0 32.2658V0ZM35.1583 20.9079C34.6455 21.4243 32.4041 24.5862 32.3405 29.0392C32.2764 33.4276 35.1583 37.9447 35.1583 37.9447C35.1583 37.9447 37.7834 34.3956 37.9111 29.6843C37.9762 25.0384 35.2865 21.1659 35.1583 20.9079Z" fill="#DCDCDC"/>
<path fill-rule="evenodd" clip-rule="evenodd" d="M63.7488 20L65.35 24.776L70.0246 23.0328L67.2713 27.2279L71.5612 29.8731L66.5666 30.3252L67.2713 35.2945L63.7488 31.6799L60.2909 35.2945L60.9956 30.3252L56 29.8731L60.2909 27.2279L57.5371 23.0328L62.2117 24.776L63.7488 20Z" fill="#DCDCDC"/>
</svg>
