<svg width="83" height="71" viewBox="0 0 83 71" fill="none" xmlns="http://www.w3.org/2000/svg">
<path d="M8.11109 0.949098C7.58623 1.03757 7.08164 3.14961 6.06724 4.24987C5.32541 5.04394 4.39939 4.99426 3.90749 5.97596C3.72077 6.34271 3.78126 6.96875 3.56936 7.56984C3.15552 8.77203 1.69722 8.8795 1.69722 10.1894C1.69215 11.6039 2.91338 11.8741 3.97053 12.8778C4.79567 13.6857 4.87644 14.2426 5.87545 14.6341C6.72848 14.9514 7.99753 13.9145 9.14052 14.2868C10.0792 14.593 10.9773 14.8134 11.1894 15.8668C11.376 16.8374 11.1767 18.3428 10.0388 18.1692C9.65523 18.1223 7.99245 17.5102 5.9488 17.7473C3.48351 18.0535 0.670137 18.9328 0.39521 21.9359C0.243801 23.6151 2.14366 25.5949 3.97813 25.1924C5.24717 24.9192 4.64679 23.2844 5.33809 22.4901C6.24382 21.4728 11.376 26.0416 16.1473 26.0416C18.1559 26.0416 19.6495 25.4875 21.1333 23.7889C21.2719 23.6592 21.441 23.3808 21.6555 23.3641C21.8574 23.3808 22.2106 23.5985 22.3267 23.6923C26.1695 27.0673 29.0736 33.8369 43.1959 33.9168C45.1816 33.9277 47.4448 34.9646 49.2917 36.8065C50.9395 38.472 51.9034 41.0611 52.8393 43.6889C54.2524 47.6321 56.7858 51.4677 60.6258 55.7361C60.8354 55.9649 63.9969 58.6507 64.2492 58.852C64.2895 58.8795 64.5217 59.4862 64.4411 59.8252C64.3477 62.3842 64.007 69.8263 69.0836 70.1628C70.3251 70.2316 69.9994 69.2777 69.9994 68.6213C69.9971 67.3253 69.7799 66.0376 70.4058 64.7114C71.261 62.8861 68.5917 62.0449 68.6699 58.0991C68.7253 55.157 66.4645 55.6587 65.3164 53.417C64.6554 52.1183 64.0675 51.4291 64.1104 49.8406C64.3678 40.9014 62.3694 35.028 61.3728 33.5859C60.5958 32.4967 59.9523 32.0639 60.6637 31.5592C64.9002 28.5012 65.8616 25.6555 65.8616 25.6555C68.1146 19.8678 70.1409 14.5817 72.934 12.2547C73.4967 11.7747 74.94 10.5975 75.8256 10.1341C78.432 8.79123 79.8046 7.97796 80.5616 7.17261C81.76 5.896 82.7062 3.23511 81.5581 1.62204C80.1301 -0.368875 77.6599 1.21115 76.57 1.91694C68.7809 6.96875 67.6329 15.8805 64.9354 20.9984C62.7832 25.0875 59.2836 28.0904 56.1549 28.3358C53.8083 28.526 51.2802 28.0076 48.762 26.7999C42.6383 23.8661 39.2873 20.0774 38.4977 19.4074C36.8525 18.0204 24.0802 4.31875 13.7326 3.75902C13.7326 3.75902 12.4485 0.949296 12.1254 0.902388C11.3684 0.797489 10.5939 2.58157 10.0388 2.7886C9.5165 2.97861 8.63848 0.855282 8.11109 0.949098Z" fill="white"/>
</svg>
