<svg width="39" height="38" viewBox="0 0 39 38" fill="none" xmlns="http://www.w3.org/2000/svg">
<g clip-path="url(#clip0_337_308)">
<path fill-rule="evenodd" clip-rule="evenodd" d="M19.5004 28.8801C25.1005 28.8801 29.6404 24.4567 29.6404 19.0001C29.6404 13.5435 25.1005 9.12012 19.5004 9.12012C13.9002 9.12012 9.36035 13.5435 9.36035 19.0001C9.36035 24.4567 13.9002 28.8801 19.5004 28.8801ZM19.5004 25.5868C23.2337 25.5868 26.2604 22.6378 26.2604 19.0001C26.2604 15.3624 23.2337 12.4135 19.5004 12.4135C15.7669 12.4135 12.7404 15.3624 12.7404 19.0001C12.7404 22.6378 15.7669 25.5868 19.5004 25.5868Z" fill="#C8AD7F"/>
<path d="M29.6401 7.6001C28.7785 7.6001 28.0801 8.28063 28.0801 9.1201C28.0801 9.95956 28.7785 10.6401 29.6401 10.6401C30.5017 10.6401 31.2001 9.95956 31.2001 9.1201C31.2001 8.28063 30.5017 7.6001 29.6401 7.6001Z" fill="#C8AD7F"/>
<path fill-rule="evenodd" clip-rule="evenodd" d="M1.89319 6.19207C0.780273 8.3203 0.780273 11.1063 0.780273 16.6783V21.3212C0.780273 26.8932 0.780273 29.6793 1.89319 31.8074C2.87215 33.6795 4.43421 35.2015 6.35553 36.1553C8.53976 37.2398 11.3991 37.2398 17.1177 37.2398H21.8828C27.6014 37.2398 30.4608 37.2398 32.6449 36.1553C34.5663 35.2015 36.1284 33.6795 37.1073 31.8074C38.2203 29.6793 38.2203 26.8932 38.2203 21.3212V16.6783C38.2203 11.1063 38.2203 8.3203 37.1073 6.19207C36.1284 4.32001 34.5663 2.798 32.6449 1.84415C30.4608 0.759766 27.6014 0.759766 21.8828 0.759766H17.1177C11.3991 0.759766 8.53976 0.759766 6.35553 1.84415C4.43421 2.798 2.87215 4.32001 1.89319 6.19207ZM21.8828 4.07613H17.1177C14.2022 4.07613 12.2203 4.07872 10.6884 4.20066C9.19617 4.31945 8.43308 4.53477 7.90075 4.79905C6.61987 5.43496 5.5785 6.44963 4.92585 7.69766C4.65462 8.21634 4.43363 8.95987 4.31172 10.4138C4.18656 11.9065 4.18391 13.8376 4.18391 16.6783V21.3212C4.18391 24.162 4.18656 26.093 4.31172 27.5857C4.43363 29.0397 4.65462 29.7833 4.92585 30.3019C5.5785 31.5499 6.61987 32.5645 7.90075 33.2004C8.43308 33.4647 9.19617 33.6801 10.6884 33.7989C12.2203 33.9207 14.2022 33.9234 17.1177 33.9234H21.8828C24.7984 33.9234 26.7801 33.9207 28.3121 33.7989C29.8044 33.6801 30.5675 33.4647 31.0999 33.2004C32.3807 32.5645 33.422 31.5499 34.0746 30.3019C34.3459 29.7833 34.567 29.0397 34.6888 27.5857C34.8139 26.093 34.8166 24.162 34.8166 21.3212V16.6783C34.8166 13.8376 34.8139 11.9065 34.6888 10.4138C34.567 8.95987 34.3459 8.21634 34.0746 7.69766C33.422 6.44963 32.3807 5.43496 31.0999 4.79905C30.5675 4.53477 29.8044 4.31945 28.3121 4.20066C26.7801 4.07872 24.7984 4.07613 21.8828 4.07613Z" fill="#C8AD7F"/>
</g>
<defs>
<clipPath id="clip0_337_308">
<rect width="39" height="38" fill="white"/>
</clipPath>
</defs>
</svg>
