<svg width="39" height="30" viewBox="0 0 39 30" fill="none" xmlns="http://www.w3.org/2000/svg">
<path fill-rule="evenodd" clip-rule="evenodd" d="M15.4312 6.71411C14.9283 6.42671 14.3104 6.42877 13.8094 6.71952C13.3084 7.01026 13 7.54573 13 8.125V21.125C13 21.7043 13.3084 22.2397 13.8094 22.5305C14.3104 22.8212 14.9283 22.8233 15.4312 22.5358L26.8062 16.0358C27.3125 15.7466 27.625 15.2082 27.625 14.625C27.625 14.0418 27.3125 13.5034 26.8062 13.2142L15.4312 6.71411ZM22.7246 14.625L16.25 18.3248V10.9252L22.7246 14.625Z" fill="#C8AD7F"/>
<path fill-rule="evenodd" clip-rule="evenodd" d="M0 14.625C0 8.53169 0 5.48502 1.55174 3.34924C2.05288 2.65947 2.65947 2.05288 3.34924 1.55173C5.48502 9.68575e-08 8.53169 0 14.625 0H24.375C30.4683 0 33.515 9.68575e-08 35.6507 1.55173C36.3405 2.05288 36.9471 2.65947 37.4483 3.34924C39 5.48502 39 8.53169 39 14.625C39 20.7183 39 23.765 37.4483 25.9007C36.9471 26.5905 36.3405 27.1971 35.6507 27.6983C33.515 29.25 30.4683 29.25 24.375 29.25H14.625C8.53169 29.25 5.48502 29.25 3.34924 27.6983C2.65947 27.1971 2.05288 26.5905 1.55174 25.9007C0 23.765 0 20.7183 0 14.625ZM14.625 3.25H24.375C27.494 3.25 29.5722 3.25447 31.1469 3.42506C32.6607 3.58907 33.319 3.87478 33.7405 4.18104C34.1542 4.48173 34.5182 4.84568 34.819 5.25954C35.1252 5.68108 35.4109 6.33934 35.575 7.85312C35.7456 9.42771 35.75 11.506 35.75 14.625C35.75 17.744 35.7456 19.8222 35.575 21.3969C35.4109 22.9107 35.1252 23.569 34.819 23.9905C34.5182 24.4042 34.1542 24.7682 33.7405 25.069C33.319 25.3752 32.6607 25.6609 31.1469 25.825C29.5722 25.9956 27.494 26 24.375 26H14.625C11.5059 26 9.42771 25.9956 7.85312 25.825C6.33934 25.6609 5.68108 25.3752 5.25954 25.069C4.84568 24.7682 4.48173 24.4042 4.18104 23.9905C3.87478 23.569 3.58907 22.9107 3.42506 21.3969C3.25447 19.8222 3.25 17.744 3.25 14.625C3.25 11.506 3.25447 9.42771 3.42506 7.85312C3.58907 6.33934 3.87478 5.68108 4.18104 5.25954C4.48173 4.84568 4.84568 4.48173 5.25954 4.18104C5.68108 3.87478 6.33934 3.58907 7.85312 3.42506C9.42771 3.25447 11.5059 3.25 14.625 3.25Z" fill="#C8AD7F"/>
</svg>
