<svg width="209" height="55" viewBox="0 0 209 55" fill="none" xmlns="http://www.w3.org/2000/svg">
<g filter="url(#filter0_d_337_283)">
<path d="M4 23.2012V11.1162L14.7422 0.374023V23.2012C14.7422 25.4212 15.5299 27.319 17.1055 28.8945C18.681 30.4701 20.5788 31.2578 22.7988 31.2578C25.0189 31.2578 26.9167 30.4701 28.4922 28.8945C30.0677 27.319 30.8555 25.4212 30.8555 23.2012V4.40234H41.5977V23.2012C41.5977 25.4212 42.3854 27.319 43.9609 28.8945C45.5365 30.4701 47.4342 31.2578 49.6543 31.2578C51.8743 31.2578 53.7721 30.4701 55.3477 28.8945C56.9232 27.319 57.7109 25.4212 57.7109 23.2012V4.40234H68.4531V23.2012C68.4531 28.3932 66.618 32.8244 62.9478 36.4946C59.2775 40.1649 54.8464 42 49.6543 42C44.4622 42 40.0311 40.1649 36.3608 36.4946L36.2266 36.3604L36.0923 36.4946C32.422 40.1649 27.9909 42 22.7988 42C17.6068 42 13.1756 40.1649 9.50537 36.4946C5.83512 32.8244 4 28.3932 4 23.2012ZM93.9658 4.40234C99.1579 4.40234 103.589 6.23747 107.259 9.90771C110.93 13.578 112.765 18.0091 112.765 23.2012V35.2861L102.022 46.0283V33.9434H80.5381V42H69.7959V23.2012C69.7959 18.0091 71.631 13.578 75.3013 9.90771C78.9715 6.23747 83.4027 4.40234 88.5947 4.40234H93.9658ZM102.022 23.2012C102.022 20.9811 101.235 19.0833 99.6592 17.5078C98.0837 15.9323 96.1859 15.1445 93.9658 15.1445H88.5947C86.3747 15.1445 84.4769 15.9323 82.9014 17.5078C81.3258 19.0833 80.5381 20.9811 80.5381 23.2012H102.022ZM126.192 31.2578H153.048L163.79 42H115.45V4.40234H126.192V31.2578ZM171.847 17.8301H185.274C187.494 17.8301 189.392 17.0423 190.968 15.4668C192.543 13.8913 193.331 11.9935 193.331 9.77344V4.40234H204.073V9.77344C204.073 14.9655 202.238 19.3966 198.568 23.0669L198.434 23.2012L198.568 23.3354C202.238 27.0057 204.073 30.5417 204.073 33.9434V35.2861L193.331 46.0283V36.6289C193.331 34.4089 192.543 32.5111 190.968 30.9355C189.392 29.36 187.494 28.5723 185.274 28.5723H171.847V42H161.104V11.1162L171.847 0.374023V17.8301Z" fill="#C8AD7F"/>
</g>
<defs>
<filter id="filter0_d_337_283" x="0" y="0.374023" width="208.073" height="53.6543" filterUnits="userSpaceOnUse" color-interpolation-filters="sRGB">
<feFlood flood-opacity="0" result="BackgroundImageFix"/>
<feColorMatrix in="SourceAlpha" type="matrix" values="0 0 0 0 0 0 0 0 0 0 0 0 0 0 0 0 0 0 127 0" result="hardAlpha"/>
<feOffset dy="4"/>
<feGaussianBlur stdDeviation="2"/>
<feComposite in2="hardAlpha" operator="out"/>
<feColorMatrix type="matrix" values="0 0 0 0 0 0 0 0 0 0 0 0 0 0 0 0 0 0 0.25 0"/>
<feBlend mode="normal" in2="BackgroundImageFix" result="effect1_dropShadow_337_283"/>
<feBlend mode="normal" in="SourceGraphic" in2="effect1_dropShadow_337_283" result="shape"/>
</filter>
</defs>
</svg>
