<svg width="18" height="16" viewBox="0 0 18 16" fill="none" xmlns="http://www.w3.org/2000/svg">
<path d="M6.87194 13.3445H3.46696C2.4633 13.3445 1.96146 13.3445 1.57811 13.1491C1.2409 12.9773 0.966746 12.7032 0.794938 12.366C0.599609 11.9826 0.599609 11.4808 0.599609 10.4771V3.66715C0.599609 2.66349 0.599609 2.16165 0.794938 1.77831C0.966746 1.4411 1.2409 1.16694 1.57811 0.995134C1.96146 0.799805 2.4633 0.799805 3.46696 0.799805H13.8611C14.8648 0.799805 15.3666 0.799805 15.75 0.995134C16.0871 1.16694 16.3613 1.4411 16.5331 1.77831C16.7284 2.16165 16.7284 2.66349 16.7284 3.66715V5.28004M16.376 3.72297L11.8449 6.74373C10.6953 7.51012 10.1205 7.89336 9.49914 8.04228C8.95005 8.17382 8.37765 8.17382 7.82864 8.04228C7.20733 7.89336 6.6325 7.51012 5.48284 6.74373L0.73174 3.57632M10.4561 15.1365L12.2706 14.7736C12.4288 14.742 12.5079 14.7262 12.5816 14.6972C12.6471 14.6716 12.7094 14.6383 12.767 14.598C12.8321 14.5527 12.8891 14.4957 13.0032 14.3815L16.7284 10.6563C17.2233 10.1614 17.2233 9.35911 16.7284 8.86422C16.2336 8.36934 15.4312 8.36934 14.9364 8.86422L11.2111 12.5894C11.097 12.7036 11.04 12.7606 10.9946 12.8256C10.9544 12.8833 10.9211 12.9455 10.8955 13.011C10.8665 13.0848 10.8507 13.1639 10.819 13.3221L10.4561 15.1365Z" stroke="#CBB170" stroke-linecap="round" stroke-linejoin="round"/>
</svg>
