<svg width="22" height="22" viewBox="0 0 22 22" fill="none" xmlns="http://www.w3.org/2000/svg">
<path fill-rule="evenodd" clip-rule="evenodd" d="M10.9999 2.2C9.03503 2.2 7.44211 3.67747 7.44211 5.5H14.5578C14.5578 3.67747 12.9649 2.2 10.9999 2.2ZM5.0702 5.5C5.0702 2.46244 7.72506 0 10.9999 0C14.2749 0 16.9297 2.46244 16.9297 5.5H16.1518C16.6681 5.50006 17.1193 5.50143 17.4979 5.5286C17.9222 5.55906 18.3433 5.62622 18.7581 5.80391C19.3575 6.06057 19.868 6.46682 20.2326 6.97723C20.4851 7.3306 20.6206 7.70626 20.7177 8.09065C20.8089 8.45212 20.8818 8.89195 20.9656 9.3975L21.5005 12.6226C21.729 14 21.9124 15.1051 21.9755 16.0016C22.0401 16.92 21.9901 17.7365 21.6662 18.5043C21.1775 19.6627 20.2797 20.6333 19.1196 21.2575C18.3506 21.6712 17.4882 21.8412 16.4998 21.9216C15.5349 22 14.3294 22 12.827 22H9.17296C7.67055 22 6.46507 22 5.50023 21.9216C4.51175 21.8412 3.64931 21.6712 2.8804 21.2575C1.72027 20.6333 0.822539 19.6627 0.333794 18.5043C0.0098619 17.7365 -0.0401026 16.92 0.0245321 16.0016C0.0876131 15.1052 0.270927 14 0.499389 12.6227L1.03436 9.39746C1.1182 8.89194 1.19112 8.45212 1.28232 8.09065C1.37931 7.70626 1.51488 7.3306 1.76732 6.97723C2.13194 6.46682 2.64248 6.06057 3.24183 5.80391C3.65676 5.62622 4.07768 5.55906 4.50204 5.5286C4.88065 5.50143 5.33191 5.50006 5.84813 5.5H5.0702ZM4.68503 7.72204C4.40364 7.74224 4.29426 7.77638 4.23607 7.8013C4.03629 7.88686 3.86611 8.02228 3.74457 8.19242C3.70917 8.24197 3.65615 8.33705 3.59184 8.59194C3.52407 8.86057 3.46439 9.21536 3.37227 9.77067L2.85221 12.9061C2.61331 14.3464 2.44692 15.3561 2.39141 16.1449C2.33666 16.9228 2.40143 17.3679 2.5426 17.7025C2.83586 18.3976 3.37449 18.9799 4.07058 19.3545C4.40568 19.5348 4.87014 19.6618 5.70742 19.7299C6.55642 19.799 7.65767 19.8 9.22882 19.8H12.7711C14.3423 19.8 15.4436 19.799 16.2925 19.7299C17.1298 19.6618 17.5943 19.5348 17.9293 19.3545C18.6255 18.9799 19.1641 18.3976 19.4573 17.7025C19.5986 17.3679 19.6633 16.9228 19.6085 16.1449C19.553 15.3561 19.3867 14.3464 19.1478 12.9061L18.6276 9.77067C18.5356 9.21537 18.4758 8.86058 18.4081 8.59194C18.3438 8.33705 18.2908 8.24197 18.2554 8.19242C18.1338 8.02228 17.9636 7.88686 17.7639 7.8013C17.7057 7.77638 17.5963 7.74224 17.3149 7.72204C17.0184 7.70076 16.6312 7.7 16.0255 7.7H5.97449C5.36874 7.7 4.9816 7.70076 4.68503 7.72204Z" fill="#CCCCCC"/>
</svg>
