<svg width="42" height="27" viewBox="0 0 42 27" fill="none" xmlns="http://www.w3.org/2000/svg">
<path d="M0 15.0371V7.34668L6.83594 0.510742V15.0371C6.83594 16.4499 7.33724 17.6576 8.33984 18.6602C9.34245 19.6628 10.5501 20.1641 11.9629 20.1641C13.3757 20.1641 14.5833 19.6628 15.5859 18.6602C16.5885 17.6576 17.0898 16.4499 17.0898 15.0371V3.07422H23.9258V15.0371C23.9258 16.4499 24.4271 17.6576 25.4297 18.6602C26.4323 19.6628 27.64 20.1641 29.0527 20.1641C30.4655 20.1641 31.6732 19.6628 32.6758 18.6602C33.6784 17.6576 34.1797 16.4499 34.1797 15.0371V3.07422H41.0156V15.0371C41.0156 18.3411 39.8478 21.161 37.5122 23.4966C35.1766 25.8322 32.3568 27 29.0527 27C25.7487 27 22.9289 25.8322 20.5933 23.4966L20.5078 23.4111L20.4224 23.4966C18.0868 25.8322 15.2669 27 11.9629 27C8.65885 27 5.83903 25.8322 3.50342 23.4966C1.16781 21.161 0 18.3411 0 15.0371Z" fill="#C8AD7F"/>
</svg>
