<svg width="23" height="22" viewBox="0 0 23 22" fill="none" xmlns="http://www.w3.org/2000/svg">
<path fill-rule="evenodd" clip-rule="evenodd" d="M20.7 3.2901C20.7 2.684 20.133 2.2 19.4982 2.2H16.0482C15.4146 2.2 14.95 2.684 14.95 3.2901V6.5901C14.95 7.1962 15.4146 7.7 16.0482 7.7H19.4982C20.133 7.7 20.7 7.1962 20.7 6.5901V3.2901ZM19.4982 9.9H16.0482C14.1427 9.9 12.65 8.4128 12.65 6.5901V3.2901C12.65 1.4674 14.1427 0 16.0482 0H19.4982C21.4038 0 23 1.4674 23 3.2901V6.5901C23 8.4128 21.4038 9.9 19.4982 9.9ZM8.05 3.2901C8.05 2.684 7.48305 2.2 6.84825 2.2H3.39825C2.7646 2.2 2.3 2.684 2.3 3.2901V6.5901C2.3 7.1962 2.7646 7.7 3.39825 7.7H6.84825C7.48305 7.7 8.05 7.1962 8.05 6.5901V3.2901ZM6.84825 9.9H3.39825C1.4927 9.9 0 8.4128 0 6.5901V3.2901C0 1.4674 1.4927 0 3.39825 0H6.84825C8.7538 0 10.35 1.4674 10.35 3.2901V6.5901C10.35 8.4128 8.7538 9.9 6.84825 9.9ZM20.7 15.3901C20.7 14.784 20.133 14.3 19.4982 14.3H16.0482C15.4146 14.3 14.95 14.784 14.95 15.3901V18.6901C14.95 19.2962 15.4146 19.8 16.0482 19.8H19.4982C20.133 19.8 20.7 19.2962 20.7 18.6901V15.3901ZM19.4982 22H16.0482C14.1427 22 12.65 20.5128 12.65 18.6901V15.3901C12.65 13.5674 14.1427 12.1 16.0482 12.1H19.4982C21.4038 12.1 23 13.5674 23 15.3901V18.6901C23 20.5128 21.4038 22 19.4982 22ZM8.05 15.3901C8.05 14.784 7.48305 14.3 6.84825 14.3H3.39825C2.7646 14.3 2.3 14.784 2.3 15.3901V18.6901C2.3 19.2962 2.7646 19.8 3.39825 19.8H6.84825C7.48305 19.8 8.05 19.2962 8.05 18.6901V15.3901ZM6.84825 22H3.39825C1.4927 22 0 20.5128 0 18.6901V15.3901C0 13.5674 1.4927 12.1 3.39825 12.1H6.84825C8.7538 12.1 10.35 13.5674 10.35 15.3901V18.6901C10.35 20.5128 8.7538 22 6.84825 22Z" fill="#CCCCCC"/>
</svg>
