<svg width="18" height="18" viewBox="0 0 18 18" fill="none" xmlns="http://www.w3.org/2000/svg">
<path d="M14.3496 6.1001V3.3501M14.3496 3.3501V0.600098M14.3496 3.3501H11.5996M14.3496 3.3501H17.0996M14.8079 17.1001C6.9609 17.1001 0.599609 10.7388 0.599609 2.89176C0.599609 2.53773 0.612562 2.18672 0.638008 1.83918C0.667213 1.44033 0.681816 1.24091 0.786334 1.05938C0.872904 0.909023 1.02632 0.766436 1.18259 0.691077C1.37127 0.600098 1.59133 0.600098 2.03145 0.600098H4.61399C4.9841 0.600098 5.16916 0.600098 5.32779 0.66101C5.46793 0.714819 5.5927 0.802214 5.69116 0.915523C5.80262 1.04379 5.86586 1.21771 5.99235 1.56554L7.06128 4.50514C7.20841 4.90983 7.28202 5.11218 7.26955 5.30416C7.25855 5.47344 7.20071 5.63634 7.10263 5.77474C6.9914 5.93169 6.80677 6.04247 6.43752 6.26402L5.18294 7.01676C6.28468 9.44492 8.25387 11.4167 10.6829 12.5168L11.4357 11.2622C11.6573 10.8929 11.768 10.7083 11.9249 10.5971C12.0634 10.499 12.2262 10.4412 12.3956 10.4302C12.5875 10.4177 12.7899 10.4913 13.1946 10.6384L16.1342 11.7073C16.482 11.8338 16.6559 11.8971 16.7842 12.0086C16.8975 12.107 16.9849 12.2318 17.0387 12.3719C17.0996 12.5305 17.0996 12.7156 17.0996 13.0857V15.6683C17.0996 16.1084 17.0996 16.3284 17.0086 16.5171C16.9332 16.6734 16.7907 16.8268 16.6404 16.9134C16.4588 17.0179 16.2594 17.0324 15.8606 17.0617C15.513 17.0872 15.162 17.1001 14.8079 17.1001Z" stroke="#CBB170" stroke-linecap="round" stroke-linejoin="round"/>
</svg>
