<svg width="12" height="16" viewBox="0 0 12 16" fill="none" xmlns="http://www.w3.org/2000/svg">
<path fill-rule="evenodd" clip-rule="evenodd" d="M6.00039 6.90781C5.55959 6.90781 5.20039 6.54861 5.20039 6.10781C5.20039 5.66701 5.55959 5.30781 6.00039 5.30781C6.44119 5.30781 6.80039 5.66701 6.80039 6.10781C6.80039 6.54861 6.44119 6.90781 6.00039 6.90781ZM6.00039 3.70781C4.67479 3.70781 3.60039 4.78221 3.60039 6.10781C3.60039 7.43341 4.67479 8.50781 6.00039 8.50781C7.32599 8.50781 8.40039 7.43341 8.40039 6.10781C8.40039 4.78221 7.32599 3.70781 6.00039 3.70781ZM6.00039 13.6C6.00039 13.6 2.00039 8 2.00039 5.6C2.00039 3.3944 3.79479 1.6 6.00039 1.6C8.20599 1.6 10.0004 3.3944 10.0004 5.6C10.0004 8 6.00039 13.6 6.00039 13.6ZM6.00039 0C2.90759 0 0.400391 2.5072 0.400391 5.6C0.400391 8.6928 6.00039 16 6.00039 16C6.00039 16 11.6004 8.6928 11.6004 5.6C11.6004 2.5072 9.09319 0 6.00039 0Z" fill="#CBB170"/>
</svg>
